{
  "accessors": [
    {
      "bufferView": 2,
      "componentType": 5126,
      "count": 65532,
      "max": [
        1.472687005996704,
        5.21596622467041,
        1.4674839973449707
      ],
      "min": [
        -0.9377620220184326,
        2.6203229427337646,
        -1.0481489896774292
      ],
      "type": "VEC3"
    },
    {
      "bufferView": 2,
      "byteOffset": 786384,
      "componentType": 5126,
      "count": 65532,
      "max": [
        1.0,
        0.9998943209648132,
        0.9999518990516663
      ],
      "min": [
        -0.9999917149543762,
        -1.0,
        -0.9999836087226868
      ],
      "type": "VEC3"
    },
    {
      "bufferView": 1,
      "componentType": 5126,
      "count": 65532,
      "max": [
        0.9921200275421143,
        0.9920600056648254
      ],
      "min": [
        0.008009999990463257,
        0.339029997587204
      ],
      "type": "VEC2"
    },
    {
      "bufferView": 0,
      "componentType": 5125,
      "count": 351360,
      "type": "SCALAR"
    },
    {
      "bufferView": 2,
      "byteOffset": 1572768,
      "componentType": 5126,
      "count": 44525,
      "max": [
        1.5374950170516968,
        5.171844005584717,
        1.3734899759292603
      ],
      "min": [
        -0.9368289709091187,
        2.522023916244507,
        -0.9627450108528137
      ],
      "type": "VEC3"
    },
    {
      "bufferView": 2,
      "byteOffset": 2107068,
      "componentType": 5126,
      "count": 44525,
      "max": [
        0.9999855756759644,
        0.9999696612358093,
        0.9999599456787109
      ],
      "min": [
        -0.9998325705528259,
        -0.9999567866325378,
        -0.9999858736991882
      ],
      "type": "VEC3"
    },
    {
      "bufferView": 1,
      "byteOffset": 524256,
      "componentType": 5126,
      "count": 44525,
      "max": [
        0.8790919780731201,
        0.9919639825820923
      ],
      "min": [
        0.00797600019723177,
        0.5155240297317505
      ],
      "type": "VEC2"
    },
    {
      "bufferView": 0,
      "byteOffset": 1405440,
      "componentType": 5125,
      "count": 248505,
      "type": "SCALAR"
    }
  ],
  "asset": {
    "extras": {
      "author": "jtressle (https://sketchfab.com/jtressle)",
      "license": "CC-BY-4.0 (http://creativecommons.org/licenses/by/4.0/)",
      "source": "https://sketchfab.com/3d-models/mail-box-ababeee9ba8a4043a700736717a94901",
      "title": "Mail Box"
    },
    "generator": "Sketchfab-12.66.0",
    "version": "2.0"
  },
  "bufferViews": [
    {
      "buffer": 0,
      "byteLength": 2399460,
      "name": "floatBufferViews",
      "target": 34963
    },
    {
      "buffer": 0,
      "byteLength": 880456,
      "byteOffset": 2399460,
      "byteStride": 8,
      "name": "floatBufferViews",
      "target": 34962
    },
    {
      "buffer": 0,
      "byteLength": 2641368,
      "byteOffset": 3279916,
      "byteStride": 12,
      "name": "floatBufferViews",
      "target": 34962
    }
  ],
  "buffers": [
    {
      "byteLength": 5921284,
      "uri": "scene.bin"
    }
  ],
  "extensionsUsed": [
    "KHR_materials_unlit"
  ],
  "images": [
    {
      "uri": "textures/material_0_baseColor.jpeg"
    }
  ],
  "materials": [
    {
      "doubleSided": true,
      "extensions": {
        "KHR_materials_unlit": {}
      },
      "name": "material_0",
      "pbrMetallicRoughness": {
        "baseColorTexture": {
          "index": 0
        },
        "metallicFactor": 0.0
      }
    }
  ],
  "meshes": [
    {
      "name": "Object_0",
      "primitives": [
        {
          "attributes": {
            "NORMAL": 1,
            "POSITION": 0,
            "TEXCOORD_0": 2
          },
          "indices": 3,
          "material": 0,
          "mode": 4
        }
      ]
    },
    {
      "name": "Object_1",
      "primitives": [
        {
          "attributes": {
            "NORMAL": 5,
            "POSITION": 4,
            "TEXCOORD_0": 6
          },
          "indices": 7,
          "material": 0,
          "mode": 4
        }
      ]
    }
  ],
  "nodes": [
    {
      "children": [
        1
      ],
      "matrix": [
        0.38967806100845337,
        -0.8278871774673461,
        -0.4034275710582735,
        0.0,
        -0.5751695036888123,
        -0.5608946084976197,
        0.5954639315605162,
        0.0,
        -0.7192572951316833,
        1.5426410204345614e-16,
        -0.6947437524795532,
        0.0,
        2.5661749839782715,
        2.6394026279449476,
        -5.884904384613036,
        1.0
      ],
      "name": "Sketchfab_model"
    },
    {
      "children": [
        2,
        3
      ],
      "name": "obj.obj.cleaner.gles"
    },
    {
      "mesh": 0,
      "name": "Object_2"
    },
    {
      "mesh": 1,
      "name": "Object_3"
    }
  ],
  "samplers": [
    {
      "magFilter": 9729,
      "minFilter": 9987,
      "wrapS": 10497,
      "wrapT": 10497
    }
  ],
  "scene": 0,
  "scenes": [
    {
      "name": "Sketchfab_Scene",
      "nodes": [
        0
      ]
    }
  ],
  "textures": [
    {
      "sampler": 0,
      "source": 0
    }
  ]
}
